<svg width="23" height="22" viewBox="0 0 23 22" fill="none" xmlns="http://www.w3.org/2000/svg">
<g clip-path="url(#clip0_1_1725)">
<path d="M21.6712 8.31924L14.7341 1.38121C13.8756 0.525153 12.7126 0.0444336 11.5002 0.0444336C10.2877 0.0444336 9.12476 0.525153 8.26619 1.38121L1.32908 8.31924C1.07338 8.5733 0.87066 8.87558 0.73266 9.20857C0.594661 9.54156 0.524131 9.89862 0.525158 10.2591V19.2375C0.525158 19.9652 0.81423 20.6631 1.32878 21.1777C1.84334 21.6922 2.54122 21.9813 3.26891 21.9813H19.7314C20.4591 21.9813 21.157 21.6922 21.6715 21.1777C22.1861 20.6631 22.4752 19.9652 22.4752 19.2375V10.2591C22.4762 9.89862 22.4057 9.54156 22.2677 9.20857C22.1297 8.87558 21.9269 8.5733 21.6712 8.31924ZM14.2439 20.1521H8.75641V16.5542C8.75641 15.8265 9.04548 15.1286 9.56003 14.614C10.0746 14.0995 10.7725 13.8104 11.5002 13.8104C12.2278 13.8104 12.9257 14.0995 13.4403 14.614C13.9548 15.1286 14.2439 15.8265 14.2439 16.5542V20.1521ZM20.646 19.2375C20.646 19.4801 20.5496 19.7127 20.3781 19.8842C20.2066 20.0558 19.974 20.1521 19.7314 20.1521H16.0731V16.5542C16.0731 15.3413 15.5913 14.1782 14.7337 13.3206C13.8761 12.463 12.713 11.9812 11.5002 11.9812C10.2873 11.9812 9.12421 12.463 8.26662 13.3206C7.40903 14.1782 6.92724 15.3413 6.92724 16.5542V20.1521H3.26891C3.02635 20.1521 2.79372 20.0558 2.6222 19.8842C2.45068 19.7127 2.35432 19.4801 2.35432 19.2375V10.2591C2.35517 10.0167 2.45144 9.78439 2.6223 9.61246L9.55941 2.67718C10.075 2.16403 10.7728 1.87595 11.5002 1.87595C12.2276 1.87595 12.9254 2.16403 13.4409 2.67718L20.378 9.61521C20.5482 9.78646 20.6444 10.0176 20.646 10.2591V19.2375Z" fill="white"/>
</g>
<defs>
<clipPath id="clip0_1_1725">
<rect width="21.95" height="21.95" fill="white" transform="translate(0.524902 0.0250244)"/>
</clipPath>
</defs>
</svg>
